<?xml version="1.0" encoding="UTF-8" standalone="no"?>
<!-- Created with Inkscape (http://www.inkscape.org/) -->

<svg
   xmlns:ns="&amp;#38;#38;#38;ns_ai;"
   xmlns:dc="http://purl.org/dc/elements/1.1/"
   xmlns:cc="http://creativecommons.org/ns#"
   xmlns:rdf="http://www.w3.org/1999/02/22-rdf-syntax-ns#"
   xmlns:svg="http://www.w3.org/2000/svg"
   xmlns="http://www.w3.org/2000/svg"
   xmlns:sodipodi="http://sodipodi.sourceforge.net/DTD/sodipodi-0.dtd"
   xmlns:inkscape="http://www.inkscape.org/namespaces/inkscape"
   width="12"
   height="12"
   viewBox="0 0 3.1750001 3.175"
   version="1.1"
   id="svg4536"
   inkscape:version="0.92.1 r15371"
   sodipodi:docname="logo_color.svg">
  <title
     id="title4631">frag-deinen-provider</title>
  <defs
     id="defs4530" />
  <sodipodi:namedview
     id="base"
     pagecolor="#ffffff"
     bordercolor="#666666"
     borderopacity="1.0"
     inkscape:pageopacity="0.0"
     inkscape:pageshadow="2"
     inkscape:zoom="40.96"
     inkscape:cx="5.0451937"
     inkscape:cy="8.1423002"
     inkscape:document-units="mm"
     inkscape:current-layer="layer1"
     showgrid="false"
     units="px"
     fit-margin-top="0"
     fit-margin-left="0"
     fit-margin-right="0"
     fit-margin-bottom="0"
     inkscape:window-width="1280"
     inkscape:window-height="1024"
     inkscape:window-x="1366"
     inkscape:window-y="0"
     inkscape:window-maximized="0" />
  <metadata
     id="metadata4533">
    <rdf:RDF>
      <cc:Work
         rdf:about="">
        <dc:format>image/svg+xml</dc:format>
        <dc:type
           rdf:resource="http://purl.org/dc/dcmitype/StillImage" />
        <dc:title>frag-deinen-provider</dc:title>
        <cc:license
           rdf:resource="http://creativecommons.org/licenses/by-nc/4.0/" />
        <dc:creator>
          <cc:Agent>
            <dc:title>peter fischer</dc:title>
          </cc:Agent>
        </dc:creator>
      </cc:Work>
      <cc:License
         rdf:about="http://creativecommons.org/licenses/by-nc/4.0/">
        <cc:permits
           rdf:resource="http://creativecommons.org/ns#Reproduction" />
        <cc:permits
           rdf:resource="http://creativecommons.org/ns#Distribution" />
        <cc:requires
           rdf:resource="http://creativecommons.org/ns#Notice" />
        <cc:requires
           rdf:resource="http://creativecommons.org/ns#Attribution" />
        <cc:prohibits
           rdf:resource="http://creativecommons.org/ns#CommercialUse" />
        <cc:permits
           rdf:resource="http://creativecommons.org/ns#DerivativeWorks" />
      </cc:License>
    </rdf:RDF>
  </metadata>
  <g
     inkscape:label="Ebene 1"
     inkscape:groupmode="layer"
     id="layer1"
     transform="translate(-103.59241,-166.96389)">
    <g
       id="g26"
       transform="matrix(0.96103098,0,0,0.96078338,4.2500515,6.6722642)">
      <path
         inkscape:export-ydpi="6"
         inkscape:export-xdpi="6"
         style="fill:#0088c1;fill-opacity:1;stroke:currentColor;stroke-width:0.02437907;stroke-linecap:round;stroke-linejoin:round"
         inkscape:connector-curvature="0"
         id="path83"
         d="m 104.99333,168.96375 c -0.0264,0.0146 -0.0518,0.0285 -0.0761,0.042 -0.0244,0.0135 -0.0477,0.0254 -0.07,0.0358 l -0.0457,0.0187 -0.067,0.0249 c -0.0772,0.027 -0.11571,0.0779 -0.11571,0.15253 0,0.0208 0.003,0.0437 0.009,0.0685 l 0.0122,0.0342 -0.33192,0.0903 -0.0396,-0.0467 c -0.0487,-0.0685 -0.0731,-0.12349 -0.0731,-0.16505 0,-0.0456 0.0304,-0.1152 0.0914,-0.20865 l 0.0122,-0.0156 0.21316,-0.35188 c 0.0365,-0.0602 0.0614,-0.11156 0.0746,-0.15414 0.0132,-0.0425 0.0198,-0.0846 0.0198,-0.12613 -0.0244,-0.19308 -0.12181,-0.28964 -0.29235,-0.28964 -0.0792,0 -0.13807,0.0176 -0.17662,0.0528 -0.0386,0.0352 -0.0538,0.0819 -0.0457,0.13982 0.0162,0.006 0.0315,0.014 0.0457,0.0233 0.0142,0.009 0.0305,0.0223 0.0487,0.0388 0.0365,0.0332 0.0639,0.0704 0.0822,0.11185 0.0183,0.0414 0.0274,0.0829 0.0274,0.12428 0,0.058 -0.0168,0.11137 -0.0503,0.16002 -0.0335,0.0487 -0.0797,0.0854 -0.13855,0.1103 -0.0426,0.0166 -0.0833,0.0249 -0.12181,0.0249 -0.0122,-0.002 -0.0213,-0.003 -0.0274,-0.003 -0.10154,0 -0.18577,-0.0383 -0.25274,-0.11495 -0.067,-0.0766 -0.10049,-0.17712 -0.10049,-0.3014 0,-0.029 0.003,-0.0611 0.009,-0.0963 0.0203,-0.12841 0.0883,-0.23716 0.20401,-0.32624 0.12381,-0.0973 0.28929,-0.15847 0.49636,-0.18332 0.0487,-0.006 0.0944,-0.009 0.13703,-0.009 0.20098,0 0.3786,0.054 0.53289,0.16185 0.0914,0.0644 0.16088,0.14118 0.20859,0.23042 0.0477,0.0892 0.0716,0.17953 0.0716,0.27079 0,0.0934 -0.0228,0.18162 -0.0685,0.26464 -0.0457,0.083 -0.11318,0.1536 -0.20249,0.21167 z m -0.32278,0.65029 c 0.0588,0.0601 0.0883,0.13156 0.0883,0.21438 0,0.0829 -0.0289,0.15332 -0.0868,0.21128 -0.0579,0.058 -0.12942,0.087 -0.21468,0.087 -0.0812,0 -0.15125,-0.028 -0.21011,-0.0839 -0.0589,-0.0559 -0.0883,-0.12531 -0.0883,-0.20817 0,-0.087 0.0289,-0.16103 0.0868,-0.22215 0.0579,-0.0611 0.12839,-0.0917 0.21164,-0.0917 0.0812,0 0.15226,0.0311 0.21316,0.0932 z"
         ns:knockout="Off" />
      <g
         inkscape:export-ydpi="6"
         inkscape:export-xdpi="6"
         transform="matrix(0.92105404,0,0,0.96705896,7.7196495,5.7429554)"
         id="g5314">
        <g
           id="g5305"
           transform="translate(-0.78106381,-1.7859316)">
          <path
             style="fill:none;stroke:#000000;stroke-width:0.26458332;stroke-linecap:round;stroke-linejoin:round;stroke-opacity:1"
             id="path29-3-5-6"
             d="m 105.56948,168.99502 a 1.4552083,1.4552083 0 0 1 1.6077,0.94064"
             inkscape:connector-curvature="0" />
          <path
             inkscape:connector-curvature="0"
             d="m 105.38131,168.54656 a 2.1166667,2.1166667 0 0 1 2.41613,1.41363"
             id="path31-6-3-2"
             style="fill:none;fill-opacity:1;stroke:#000000;stroke-width:0.26458332;stroke-linecap:round;stroke-linejoin:round;stroke-opacity:1" />
        </g>
        <g
           id="g5273"
           transform="matrix(0.94551861,0,0,0.96568741,4.7958791,6.0232061)">
          <g
             id="g5278">
            <path
               style="fill:none;stroke:#ff0000;stroke-width:0.26458332;stroke-linecap:round;stroke-linejoin:round;stroke-opacity:1"
               id="path29-3-5"
               d="m 105.72478,167.01125 a 1.4552083,1.4552083 0 0 1 1.6077,0.94064"
               inkscape:connector-curvature="0" />
            <path
               inkscape:connector-curvature="0"
               d="m 105.53661,166.56279 a 2.1166667,2.1166667 0 0 1 2.41613,1.41363"
               id="path31-6-3"
               style="fill:none;fill-opacity:1;stroke:#ff0000;stroke-width:0.26458332;stroke-linecap:round;stroke-linejoin:round;stroke-opacity:1" />
          </g>
        </g>
      </g>
    </g>
  </g>
</svg>
